# xmcd
#
# Track frame offsets: 
#        150
#        36520
#        62190
#        89314
#        130966
#        174721
#        195012
#        231532
#        262953
#
# Disc length: 4067 seconds
#
# Revision: 1
# Processed by: cddbd v1.5.2PL0 Copyright (c) Steve Scherf et al.
# Submitted via: ExactAudioCopyFreeDBPlugin 1.0
#
DISCID=7c0fe109
DTITLE=George Benson - The best of
DYEAR=2004
DGENRE=Jazz
TTITLE0=This Masquerade
TTITLE1=Breezin'
TTITLE2=Nature Boy
TTITLE3=The Gentle Rain
TTITLE4=The World Is A Ghetto
TTITLE5=Valdez In The Country
TTITLE6=Everything Must Change
TTITLE7=Affirmation
TTITLE8=So What
EXTD=YEAR: 2004
EXTT0=
EXTT1=
EXTT2=
EXTT3=
EXTT4=
EXTT5=
EXTT6=
EXTT7=
EXTT8=
PLAYORDER=
